<svg xmlns="http://www.w3.org/2000/svg" xmlns:xlink="http://www.w3.org/1999/xlink" viewBox="0 0 1116 1112" width="1116" height="1112" preserveAspectRatio="xMidYMid meet" style="width: 100%; height: 100%; transform: translate3d(0px, 0px, 0px); content-visibility: visible;" id="Golden Card"><defs><clipPath id="__lottie_element_921"><rect width="1116" height="1112" x="0" y="0"/></clipPath><clipPath id="__lottie_element_926"><path d="M0,0 L1116,0 L1116,1112 L0,1112z"/></clipPath></defs><g clip-path="url(#__lottie_element_921)"><g transform="matrix(1,0,0,1,0,0)" opacity="1" style="display: block;"><rect width="1116" height="1112" fill="#ffffff00"/></g><g clip-path="url(#__lottie_element_926)" transform="matrix(0.8299999833106995,0,0,0.8299999833106995,91.54000854492188,89.5400390625)" opacity="1" style="display: block;"><g transform="matrix(0.9900000095367432,0,0,1.1100000143051147,550.1799926757812,548.02001953125)" opacity="1" style="display: block;"><g opacity="1" transform="matrix(1,0,0,1,18,18)"><path fill="rgb(255,207,0)" fill-opacity="1" d=" M418,-165.5 C418,-165.5 418,165.5 418,165.5 C418,184.2646026611328 402.76458740234375,199.5 384,199.5 C384,199.5 -384,199.5 -384,199.5 C-402.76458740234375,199.5 -418,184.2646026611328 -418,165.5 C-418,165.5 -418,-165.5 -418,-165.5 C-418,-184.2646026611328 -402.76458740234375,-199.5 -384,-199.5 C-384,-199.5 384,-199.5 384,-199.5 C402.76458740234375,-199.5 418,-184.2646026611328 418,-165.5z"/><path stroke-linecap="butt" stroke-linejoin="miter" fill-opacity="0" stroke-miterlimit="4" stroke="rgb(75,71,76)" stroke-opacity="1" stroke-width="0" d=" M418,-165.5 C418,-165.5 418,165.5 418,165.5 C418,184.2646026611328 402.76458740234375,199.5 384,199.5 C384,199.5 -384,199.5 -384,199.5 C-402.76458740234375,199.5 -418,184.2646026611328 -418,165.5 C-418,165.5 -418,-165.5 -418,-165.5 C-418,-184.2646026611328 -402.76458740234375,-199.5 -384,-199.5 C-384,-199.5 384,-199.5 384,-199.5 C402.76458740234375,-199.5 418,-184.2646026611328 418,-165.5z"/></g></g><g transform="matrix(1.0099999904632568,0,0,0.6834200024604797,555.800048828125,480.1707458496094)" opacity="1" style="display: block;"><g opacity="1" transform="matrix(1,0,0,0.6315799951553345,11,-50)"><path fill="rgb(255,255,255)" fill-opacity="1" d=" M409,-40 C409,-40 409,40 409,40 C409,40 -409,40 -409,40 C-409,40 -409,-40 -409,-40 C-409,-40 409,-40 409,-40z"/><path stroke-linecap="butt" stroke-linejoin="miter" fill-opacity="0" stroke-miterlimit="4" stroke="rgb(75,71,76)" stroke-opacity="1" stroke-width="0" d=" M409,-40 C409,-40 409,40 409,40 C409,40 -409,40 -409,40 C-409,40 -409,-40 -409,-40 C-409,-40 409,-40 409,-40z"/></g></g><g transform="matrix(1.019779920578003,0,0,0.643750011920929,553.8695068359375,527.1875)" opacity="1" style="display: block;"><g opacity="1" transform="matrix(1,0,0,0.6315799951553345,11,-50)"><path fill="rgb(255,255,255)" fill-opacity="1" d=" M409,-40 C409,-40 409,40 409,40 C409,40 -409,40 -409,40 C-409,40 -409,-40 -409,-40 C-409,-40 409,-40 409,-40z"/><path stroke-linecap="butt" stroke-linejoin="miter" fill-opacity="0" stroke-miterlimit="4" stroke="rgb(75,71,76)" stroke-opacity="1" stroke-width="0" d=" M409,-40 C409,-40 409,40 409,40 C409,40 -409,40 -409,40 C-409,40 -409,-40 -409,-40 C-409,-40 409,-40 409,-40z"/></g></g><g transform="matrix(1.0399999618530273,0,0,1.1701300144195557,529.280029296875,534.9376831054688)" opacity="1" style="display: block;"><g opacity="1" transform="matrix(1,0,0,1,18,18)"><path stroke-linecap="butt" stroke-linejoin="miter" fill-opacity="0" stroke-miterlimit="4" stroke="rgb(75,71,76)" stroke-opacity="1" stroke-width="3" d=" M243.0399932861328,-199.5 C326.5329895019531,-199.5 384,-199.5 384,-199.5 C402.76458740234375,-199.5 418,-184.2646026611328 418,-165.5 C418,-165.5 418,-165.5 418,-165.5 C418,-165.5 418,165.5 418,165.5 C418,184.2646026611328 402.76458740234375,199.5 384,199.5 C384,199.5 -384,199.5 -384,199.5 C-402.76458740234375,199.5 -418,184.2646026611328 -418,165.5 C-418,165.5 -418,-165.5 -418,-165.5 C-418,-184.2646026611328 -402.76458740234375,-199.5 -384,-199.5 C-384,-199.5 -151.01800537109375,-199.5 58.29999923706055,-199.5"/></g></g><g transform="matrix(0.5199999809265137,0,0,0.6299999952316284,738.4000244140625,587.9500122070312)" opacity="1" style="display: block;"><g opacity="1" transform="matrix(1,0,0,1,255,135)"><path fill="rgb(255,255,255)" fill-opacity="1" d=" M75,-43 C75,-43 75,43 75,43 C75,43 -75,43 -75,43 C-75,43 -75,-43 -75,-43 C-75,-43 75,-43 75,-43z"/><path stroke-linecap="butt" stroke-linejoin="miter" fill-opacity="0" stroke-miterlimit="4" stroke="rgb(75,71,76)" stroke-opacity="1" stroke-width="6" d=" M75,-43 C75,-43 75,43 75,43 C75,43 -75,43 -75,43 C-75,43 -75,-43 -75,-43 C-75,-43 75,-43 75,-43z"/></g></g></g></g></svg>